<?xml version="1.0" encoding="UTF-8"?><svg id="Layer_1" xmlns="http://www.w3.org/2000/svg"  viewBox="0 0 1114.81 240.11"><defs><style>.cls-1,.cls-2,.cls-3{stroke-width:0px;}.cls-2{fill:#fff;}.cls-3{fill:#ea0029;}.cls-4{fill:#fff;}</style></defs><rect class="cls-1" width="240.11" height="240.11"/><path class="cls-3" d="m10.86,10.86v218.39h218.39V10.86H10.86Zm217.21,217.21H12.05V12.05h216.02v216.02Z"/><path class="cls-2" d="m146.57,179.82c31.34.92,50.22,3.2,69.6,4.76v3.33H23.95v-3.4c13.93-1.07,22.92-2.56,43.8-3.65h-.17s-.21-10.62-3.55-13.13c2.08-5.83,8.14-17.93,5.84-25.44,4.17-3.4,8.72-14.5,7.66-19.5-.35-1.07-.68-2.18-.96-3.32-1.61-6.46-1.59-13.88,4.78-20.16.59-.57,1.17-1.1,1.76-1.61-1.03-.22-2.35-.66-4.01-1.5-3.35-1.7-6.87-4.58-9.36-2.78-4.09,2.95.88,6.02,1.21,11.97.68,12.23-15.71,12.75-15.71,12.75.17-.22-.28-1.05-.11-1.28,10.59-12.2-4.42-21.84,2.64-29.86,3.99-4.52,11.1-4.69,16.15-.67,2.48,1.96,7.85,7.95,12.43,8.98,14.76-9.14,28.29,5,42.17.8,7.09-1.95,10.85-4.74,12.52-6.77-.18-.77-2.39-3.05-5.63-5.5,1.37-4.68,5.5-14.29,8.33-18.74,3.31-5.19,8.54-11.51,17.89-12.75,2.55-.34,4.86-.04,6.93.59.71-.3,1.95-.74,2.9-.74l1.75,2.93c4.05,2.65,6.49,6.31,6.91,7.43,0,0-1.03,1.16-2.52,2.13,1,6.14,1.41,15.6,1.58,16.32.21.86.07,2.44-.26,3.15-.33.73-1.94,2-1.94,2,0,0-1.61,2.02-3.23,1.5-3.6-1.15-4.23-.9-4.01-3.41.02-.37.05-.69.05-.97-.66-3.08-3.73-4.98-5.98-5.9-.63,4.68,2.02,10.42,4.24,17.16l.04-.05c1.45,4.05,5.63,13.77,3.62,24.11-1.39,5.42-4.05,12.47-11.23,16.8-4.9,6.99-20.99,25.92-17.12,39.75.3,1.1,2.27,2.9,3.2,4.68m-8.73-14.21c.97-1.92,1.85-7.95,1.78-13.01,1.99-3.38,5.51-10.09,6.1-15.28-.3-.09-.57-.18-.82-.28-15.97,1.44-27.72-9.33-34.91-9.83-7.58-1-15.56,3.23-19.24,8.11,0-.02,0-.03,0-.05-1.49,2.09-3.31,4.37-5.09,6.41-.64.76-1.36,1.54-2.13,2.33-.05.07-.12.14-.17.19v-.02c-3.29,3.37-7.37,7.13-9.3,12.08-2.92,7.51-2.3,14.6-.43,17.31,1.77,2.54,2.95,4.72,2.76,6.87,6.23-.28,12.62-.52,19.14-.7h10.09c-.1-1.03-.34-2.25-.9-3.46-1.47-3.13-3.97-6.05-5.64-6.05-.41-3.34-3.13-13.97-9.8-18.35.86-3.96,1.55-6.5,1.62-10.59,5.19-7.8,12.58-8.67,16.04-8.58-1.48,5.07-3.63,8.53-6.01,13.13-.7,1.34-2.39,4.93-.63,8.95,2.08,4.8,7.95,18.1,9.41,19.82.86.99,3.35,3.06,4.53,5.13h24.07c.12-2.16-.25-5.11-2.47-7.27-.61-.48,1.05-4.95,2.02-6.87Zm36.45-44.59c3.51.23,6.65.42,9.91.42,2.52,0,4.66,2.51,3.93,6.1-.71,3.59-.97,12.85-.86,14.88,0,0-3.67,3.57-4.04,6.25,0,0-3.22,4.54-8.65,4.88l1.02-7.33s2.8.51,4.66-1.75l.03-1.58,3.09-12.39-1.26-1.83-10.9,1.64c1.44-2.35,2.49-4.85,3.07-9.29Z"/><path class="cls-4" d="m289.52,115.62c-8.3-7.44-10.35-17.2-10.35-25.33,0-5.73,1.97-15.75,9.58-23.36,5.14-5.13,12.92-9.16,26.1-9.16,3.42,0,8.22.26,12.41,1.03,3.25.6,5.99,1.11,8.73,1.28.94.09,1.11.43,1.11.94,0,.68-.26,1.71-.43,4.79-.17,2.82-.17,7.53-.26,8.81-.09,1.28-.26,1.8-.77,1.8-.6,0-.68-.6-.68-1.8,0-3.34-1.37-6.85-3.59-8.73-2.99-2.57-9.59-4.88-17.11-4.88-11.38,0-16.69,3.34-19.68,6.25-6.25,5.99-7.7,13.61-7.7,22.34,0,16.34,12.58,31.32,30.89,31.32,6.42,0,11.47-.77,14.89-4.28,1.8-1.88,2.91-5.65,3.17-7.19.17-.94.34-1.28.86-1.28.43,0,.6.6.6,1.28,0,.6-1.03,8.04-1.88,10.95-.51,1.63-.68,1.8-2.23,2.48-3.42,1.37-9.93,1.97-15.4,1.97-12.84,0-21.48-3.17-28.24-9.24Z"/><path class="cls-4" d="m370.14,61.1c1.03-2.82,1.37-3.34,1.88-3.34s.86.43,1.88,3.08c1.28,3.25,14.72,38.59,19.94,51.6,3.08,7.62,5.56,8.99,7.36,9.5,1.28.43,2.57.51,3.42.51.51,0,.86.09.86.51,0,.51-.77.68-1.71.68-1.28,0-7.53,0-13.43-.17-1.63-.09-2.57-.09-2.57-.6,0-.34.26-.51.6-.6.51-.17,1.03-.94.51-2.31l-7.96-21.05c-.17-.34-.34-.51-.77-.51h-18.4c-.43,0-.68.26-.86.68l-5.13,15.15c-.77,2.14-1.2,4.19-1.2,5.73,0,1.71,1.8,2.48,3.25,2.48h.86c.6,0,.86.17.86.51,0,.51-.51.68-1.28.68-2.05,0-5.73-.26-6.67-.26s-5.65.26-9.67.26c-1.11,0-1.63-.17-1.63-.68,0-.34.34-.51.77-.51.6,0,1.8-.09,2.48-.17,3.94-.51,5.65-3.77,7.19-8.04l19.43-53.14Zm8.9,34.23c.43,0,.43-.26.34-.6l-8.13-23.11c-.43-1.28-.86-1.28-1.28,0l-7.53,23.11c-.17.43,0,.6.26.6h16.35Z"/><path class="cls-4" d="m417.72,83.78c0-13.35,0-15.75-.17-18.48-.17-2.91-.86-4.28-3.68-4.88-.68-.17-2.14-.26-2.91-.26-.34,0-.68-.17-.68-.51,0-.51.43-.68,1.37-.68,3.85,0,9.24.26,9.67.26.94,0,7.45-.26,10.1-.26,5.39,0,11.13.51,15.66,3.77,2.14,1.54,5.9,5.73,5.9,11.64,0,6.33-2.65,12.67-10.35,19.77,7.02,8.99,12.84,16.6,17.8,21.91,4.62,4.88,8.3,5.82,10.44,6.16,1.63.26,2.82.26,3.34.26.43,0,.77.26.77.51,0,.51-.51.68-2.05.68h-6.07c-4.79,0-6.93-.43-9.16-1.63-3.68-1.97-6.68-6.16-11.55-12.58-3.59-4.71-7.62-10.44-9.33-12.67-.34-.34-.6-.51-1.11-.51l-10.53-.17c-.43,0-.6.26-.6.68v2.05c0,8.22,0,14.98.43,18.57.26,2.48.77,4.36,3.34,4.71,1.2.17,3.08.34,3.85.34.51,0,.68.26.68.51,0,.43-.43.68-1.37.68-4.71,0-10.1-.26-10.53-.26-.09,0-5.48.26-8.04.26-.94,0-1.37-.17-1.37-.68,0-.26.17-.51.68-.51.77,0,1.8-.17,2.57-.34,1.71-.34,2.14-2.22,2.48-4.71.43-3.59.43-10.35.43-18.57v-15.06Zm6.85,7.44c0,.43.17.77.6,1.03,1.28.77,5.22,1.37,8.98,1.37,2.05,0,4.45-.26,6.42-1.63,2.99-2.05,5.22-6.68,5.22-13.18,0-10.7-5.65-17.12-14.81-17.12-2.57,0-4.88.26-5.73.51-.43.17-.68.51-.68,1.03v27.98Z"/><path class="cls-4" d="m482.24,83.78c0-13.35,0-15.75-.17-18.48-.17-2.91-.86-4.28-3.68-4.88-.68-.17-2.14-.26-2.91-.26-.34,0-.68-.17-.68-.51,0-.51.43-.68,1.37-.68,3.85,0,9.24.26,9.67.26.94,0,7.45-.26,10.1-.26,5.39,0,11.13.51,15.66,3.77,2.14,1.54,5.9,5.73,5.9,11.64,0,6.33-2.65,12.67-10.35,19.77,7.02,8.99,12.84,16.6,17.8,21.91,4.62,4.88,8.3,5.82,10.44,6.16,1.63.26,2.82.26,3.34.26.43,0,.77.26.77.51,0,.51-.51.68-2.05.68h-6.08c-4.79,0-6.93-.43-9.16-1.63-3.68-1.97-6.68-6.16-11.55-12.58-3.59-4.71-7.62-10.44-9.33-12.67-.34-.34-.6-.51-1.11-.51l-10.53-.17c-.43,0-.6.26-.6.68v2.05c0,8.22,0,14.98.43,18.57.26,2.48.77,4.36,3.34,4.71,1.2.17,3.08.34,3.85.34.51,0,.68.26.68.51,0,.43-.43.68-1.37.68-4.71,0-10.1-.26-10.53-.26-.09,0-5.48.26-8.04.26-.94,0-1.37-.17-1.37-.68,0-.26.17-.51.68-.51.77,0,1.8-.17,2.57-.34,1.71-.34,2.14-2.22,2.48-4.71.43-3.59.43-10.35.43-18.57v-15.06Zm6.85,7.44c0,.43.17.77.6,1.03,1.28.77,5.22,1.37,8.98,1.37,2.05,0,4.45-.26,6.42-1.63,2.99-2.05,5.22-6.68,5.22-13.18,0-10.7-5.65-17.12-14.81-17.12-2.57,0-4.88.26-5.73.51-.43.17-.68.51-.68,1.03v27.98Z"/><path class="cls-4" d="m553.96,98.84c0,8.22,0,14.98.43,18.57.26,2.48.77,4.36,3.34,4.71,1.2.17,3.08.34,3.85.34.51,0,.68.26.68.51,0,.43-.43.68-1.37.68-4.71,0-10.1-.26-10.53-.26s-5.82.26-8.39.26c-.94,0-1.37-.17-1.37-.68,0-.26.17-.51.68-.51.77,0,1.8-.17,2.57-.34,1.71-.34,2.14-2.22,2.48-4.71.43-3.59.43-10.35.43-18.57v-15.06c0-13.35,0-15.75-.17-18.48-.17-2.91-1.03-4.36-2.91-4.79-.94-.26-2.05-.34-2.65-.34-.34,0-.68-.17-.68-.51,0-.51.43-.68,1.37-.68,2.82,0,8.22.26,8.64.26s5.82-.26,8.39-.26c.94,0,1.37.17,1.37.68,0,.34-.34.51-.69.51-.6,0-1.11.09-2.14.26-2.31.43-2.99,1.88-3.17,4.88-.17,2.74-.17,5.13-.17,18.48v15.06Z"/><path class="cls-4" d="m596.75,61.1c1.03-2.82,1.37-3.34,1.88-3.34s.86.43,1.88,3.08c1.28,3.25,14.72,38.59,19.94,51.6,3.08,7.62,5.56,8.99,7.36,9.5,1.28.43,2.57.51,3.42.51.51,0,.86.09.86.51,0,.51-.77.68-1.71.68-1.28,0-7.53,0-13.43-.17-1.63-.09-2.57-.09-2.57-.6,0-.34.26-.51.6-.6.51-.17,1.03-.94.51-2.31l-7.96-21.05c-.17-.34-.34-.51-.77-.51h-18.4c-.43,0-.68.26-.86.68l-5.13,15.15c-.77,2.14-1.2,4.19-1.2,5.73,0,1.71,1.8,2.48,3.25,2.48h.86c.6,0,.86.17.86.51,0,.51-.51.68-1.28.68-2.05,0-5.73-.26-6.67-.26s-5.65.26-9.67.26c-1.11,0-1.63-.17-1.63-.68,0-.34.34-.51.77-.51.6,0,1.8-.09,2.48-.17,3.94-.51,5.65-3.77,7.19-8.04l19.43-53.14Zm8.9,34.23c.43,0,.43-.26.34-.6l-8.13-23.11c-.43-1.28-.86-1.28-1.28,0l-7.53,23.11c-.17.43,0,.6.26.6h16.35Z"/><path class="cls-4" d="m681.04,101.84c0-6.93-.43-7.87-3.85-8.81-.68-.17-2.14-.26-2.91-.26-.34,0-.68-.17-.68-.51,0-.51.43-.68,1.37-.68,3.85,0,9.24.26,9.67.26s5.82-.26,8.39-.26c.94,0,1.37.17,1.37.68,0,.34-.34.51-.69.51-.6,0-1.11.09-2.14.26-2.31.43-2.99,1.88-3.17,4.88-.17,2.74-.17,5.31-.17,8.9v9.59c0,3.85-.09,4.02-1.11,4.62-5.48,2.91-13.18,3.85-18.14,3.85-6.5,0-18.66-.86-28.15-9.16-5.22-4.54-10.18-13.69-10.18-24.39,0-13.69,6.68-23.36,14.29-28.15,7.7-4.79,16.17-5.39,22.76-5.39,5.39,0,11.47,1.11,13.09,1.45,1.8.43,4.79.77,6.93.86.86.09,1.03.43,1.03.77,0,1.2-.6,3.59-.6,12.15,0,1.37-.17,1.8-.77,1.8-.43,0-.51-.51-.6-1.28-.09-1.2-.51-3.59-1.8-5.65-2.14-3.25-9.07-6.93-20.11-6.93-5.39,0-11.81.51-18.31,5.65-4.96,3.94-8.47,11.72-8.47,21.74,0,12.07,6.08,20.79,9.07,23.7,6.76,6.59,14.55,9.16,22.42,9.16,3.08,0,7.53-.51,9.76-1.8,1.11-.6,1.71-1.54,1.71-2.99v-14.55Z"/><path class="cls-4" d="m710.21,83.78c0-13.35,0-15.75-.17-18.48-.17-2.91-.86-4.28-3.68-4.88-.68-.17-2.14-.26-2.91-.26-.34,0-.68-.17-.68-.51,0-.51.43-.68,1.37-.68,3.85,0,9.24.26,9.67.26.6,0,17.63,0,19.6-.09,1.63-.09,3-.26,3.68-.43.43-.09.77-.43,1.2-.43.26,0,.34.34.34.77,0,.6-.43,1.63-.68,4.02-.09.86-.26,4.62-.43,5.65-.09.43-.26.94-.6.94-.51,0-.68-.43-.68-1.11,0-.6-.09-2.05-.51-3.08-.6-1.37-1.45-2.4-6.07-2.91-1.45-.17-10.78-.26-11.72-.26-.34,0-.51.26-.51.86v23.62c0,.6.09.86.51.86,1.11,0,11.64,0,13.61-.17,2.05-.17,3.25-.34,4.02-1.2.6-.68.94-1.11,1.28-1.11.26,0,.43.17.43.68s-.43,1.97-.69,4.79c-.17,1.71-.34,4.88-.34,5.48,0,.68,0,1.63-.6,1.63-.43,0-.6-.34-.6-.77,0-.86,0-1.71-.34-2.82-.34-1.2-1.11-2.65-4.45-2.99-2.31-.26-10.78-.43-12.24-.43-.43,0-.6.26-.6.6v7.53c0,2.91-.09,12.84,0,14.63.26,5.9,1.54,7.02,9.93,7.02,2.22,0,5.99,0,8.22-.94,2.22-.94,3.25-2.65,3.85-6.16.17-.94.34-1.28.77-1.28.51,0,.51.68.51,1.28,0,.68-.68,6.5-1.11,8.3-.6,2.23-1.28,2.23-4.62,2.23-12.92,0-18.66-.51-21.14-.51-.43,0-5.82.26-8.39.26-.94,0-1.37-.17-1.37-.68,0-.26.17-.51.68-.51.77,0,1.8-.17,2.57-.34,1.71-.34,2.14-2.22,2.48-4.71.43-3.59.43-10.35.43-18.57v-15.06Z"/><path class="cls-4" d="m810.63,99.06c0,8.22,0,14.98.43,18.57.26,2.48.77,4.36,3.34,4.71,1.2.17,3.08.34,3.85.34.51,0,.68.26.68.51,0,.43-.43.68-1.37.68-4.71,0-10.1-.26-10.53-.26s-5.82.26-8.39.26c-.94,0-1.37-.17-1.37-.68,0-.26.17-.51.69-.51.77,0,1.8-.17,2.57-.34,1.71-.34,2.14-2.23,2.48-4.71.43-3.59.43-10.36.43-18.57v-36.2l-12.67.17c-5.31.09-7.36.68-8.73,2.74-.94,1.45-1.2,2.05-1.45,2.65-.26.68-.51.86-.86.86-.26,0-.43-.26-.43-.77,0-.86,1.71-8.22,1.88-8.9.17-.51.51-1.63.86-1.63.6,0,1.45.86,3.77,1.03,2.48.26,5.73.43,6.76.43h32.09c5.48,0,7.79-.86,8.47-.86.43,0,.43.51.43,1.03,0,2.57-.26,8.47-.26,9.41,0,.77-.26,1.11-.6,1.11-.43,0-.6-.26-.69-1.45l-.09-.94c-.34-2.57-2.31-4.54-10.53-4.71l-10.78-.17v36.2Z"/><path class="cls-4" d="m851.53,84c0-13.35,0-15.75-.17-18.48-.17-2.91-.86-4.28-3.68-4.88-.68-.17-2.14-.26-2.91-.26-.34,0-.68-.17-.68-.51,0-.51.43-.69,1.37-.69,3.85,0,9.24.26,9.67.26.94,0,7.45-.26,10.1-.26,5.39,0,11.13.51,15.66,3.77,2.14,1.54,5.9,5.73,5.9,11.64,0,6.33-2.65,12.67-10.35,19.77,7.02,8.99,12.84,16.6,17.8,21.91,4.62,4.88,8.3,5.82,10.44,6.16,1.63.26,2.82.26,3.34.26.43,0,.77.26.77.51,0,.51-.51.68-2.05.68h-6.08c-4.79,0-6.93-.43-9.16-1.63-3.68-1.97-6.68-6.16-11.55-12.58-3.59-4.71-7.62-10.44-9.33-12.67-.34-.34-.6-.51-1.11-.51l-10.53-.17c-.43,0-.6.26-.6.69v2.05c0,8.22,0,14.98.43,18.57.26,2.48.77,4.36,3.34,4.71,1.2.17,3.08.34,3.85.34.51,0,.68.26.68.51,0,.43-.43.68-1.37.68-4.71,0-10.1-.26-10.53-.26-.09,0-5.48.26-8.04.26-.94,0-1.37-.17-1.37-.68,0-.26.17-.51.68-.51.77,0,1.8-.17,2.57-.34,1.71-.34,2.14-2.23,2.48-4.71.43-3.59.43-10.36.43-18.57v-15.06Zm6.85,7.44c0,.43.17.77.6,1.03,1.28.77,5.22,1.37,8.98,1.37,2.05,0,4.45-.26,6.42-1.63,2.99-2.05,5.22-6.68,5.22-13.18,0-10.7-5.65-17.12-14.81-17.12-2.57,0-4.88.26-5.73.51-.43.17-.68.51-.68,1.03v27.98Z"/><path class="cls-4" d="m928.8,61.32c1.03-2.82,1.37-3.34,1.88-3.34s.86.43,1.88,3.08c1.28,3.25,14.72,38.59,19.94,51.6,3.08,7.62,5.56,8.99,7.36,9.5,1.28.43,2.57.51,3.42.51.51,0,.86.09.86.51,0,.51-.77.68-1.71.68-1.28,0-7.53,0-13.43-.17-1.63-.09-2.57-.09-2.57-.6,0-.34.26-.51.6-.6.51-.17,1.03-.94.51-2.31l-7.96-21.05c-.17-.34-.34-.51-.77-.51h-18.4c-.43,0-.68.26-.86.69l-5.13,15.15c-.77,2.14-1.2,4.19-1.2,5.73,0,1.71,1.8,2.48,3.25,2.48h.86c.6,0,.86.17.86.51,0,.51-.51.68-1.28.68-2.05,0-5.73-.26-6.67-.26s-5.65.26-9.67.26c-1.11,0-1.63-.17-1.63-.68,0-.34.34-.51.77-.51.6,0,1.8-.09,2.48-.17,3.94-.51,5.65-3.77,7.19-8.04l19.43-53.14Zm8.9,34.23c.43,0,.43-.26.34-.6l-8.13-23.11c-.43-1.28-.86-1.28-1.28,0l-7.53,23.11c-.17.43,0,.6.26.6h16.35Z"/><path class="cls-4" d="m974.41,84c0-13.35,0-15.75-.17-18.48-.17-2.91-.86-4.28-3.68-4.88-.68-.17-2.14-.26-2.91-.26-.34,0-.68-.17-.68-.51,0-.51.43-.69,1.37-.69,3.85,0,9.24.26,9.67.26,1.03,0,6.42-.26,11.55-.26,8.47,0,24.13-.77,34.32,9.76,4.28,4.45,8.3,11.55,8.3,21.74,0,10.78-4.45,19.08-9.24,24.13-3.68,3.85-11.38,9.84-25.93,9.84-7.36,0-18.14-1.03-19-1.03-.43,0-5.82.26-8.39.26-.94,0-1.37-.17-1.37-.68,0-.26.17-.51.68-.51.77,0,1.8-.17,2.57-.34,1.71-.34,2.14-2.23,2.48-4.71.43-3.59.43-10.36.43-18.57v-15.06Zm7.19,9.24c0,9.07.09,16.94.17,18.57.09,2.14.26,5.56.94,6.5,1.11,1.63,4.45,3.42,14.55,3.42,7.96,0,15.32-2.91,20.37-7.96,4.45-4.36,6.85-12.58,6.85-20.45,0-10.87-4.71-17.88-8.22-21.56-8.04-8.47-17.8-9.67-27.98-9.67-1.71,0-4.88.26-5.56.6-.77.34-1.03.77-1.03,1.71-.09,2.91-.09,11.64-.09,18.23v10.61Z"/><path class="cls-4" d="m1046.14,84c0-13.35,0-15.75-.17-18.48-.17-2.91-.86-4.28-3.68-4.88-.68-.17-2.14-.26-2.91-.26-.34,0-.68-.17-.68-.51,0-.51.43-.69,1.37-.69,3.85,0,9.24.26,9.67.26.6,0,17.63,0,19.6-.09,1.63-.09,3-.26,3.68-.43.43-.09.77-.43,1.2-.43.26,0,.34.34.34.77,0,.6-.43,1.63-.68,4.02-.09.86-.26,4.62-.43,5.65-.09.43-.26.94-.6.94-.51,0-.68-.43-.68-1.11,0-.6-.09-2.05-.51-3.08-.6-1.37-1.45-2.4-6.07-2.91-1.45-.17-10.78-.26-11.72-.26-.34,0-.51.26-.51.86v23.62c0,.6.09.86.51.86,1.11,0,11.64,0,13.61-.17,2.05-.17,3.25-.34,4.02-1.2.6-.69.94-1.11,1.28-1.11.26,0,.43.17.43.69s-.43,1.97-.69,4.79c-.17,1.71-.34,4.88-.34,5.48,0,.69,0,1.63-.6,1.63-.43,0-.6-.34-.6-.77,0-.86,0-1.71-.34-2.82-.34-1.2-1.11-2.65-4.45-2.99-2.31-.26-10.78-.43-12.24-.43-.43,0-.6.26-.6.6v7.53c0,2.91-.09,12.84,0,14.63.26,5.9,1.54,7.02,9.93,7.02,2.22,0,5.99,0,8.22-.94,2.22-.94,3.25-2.65,3.85-6.16.17-.94.34-1.28.77-1.28.51,0,.51.69.51,1.28,0,.69-.68,6.5-1.11,8.3-.6,2.22-1.28,2.22-4.62,2.22-12.92,0-18.66-.51-21.14-.51-.43,0-5.82.26-8.39.26-.94,0-1.37-.17-1.37-.68,0-.26.17-.51.68-.51.77,0,1.8-.17,2.57-.34,1.71-.34,2.14-2.23,2.48-4.71.43-3.59.43-10.36.43-18.57v-15.06Z"/><path class="cls-4" d="m290.62,173.51c0,3.72,0,5.72.61,6.25.49.44,1.25.64,3.52.64,1.54,0,2.67-.03,3.4-.81.35-.38.7-1.19.75-1.74.03-.26.09-.44.32-.44.2,0,.23.14.23.49,0,.32-.2,2.5-.44,3.34-.17.64-.32.78-1.83.78-4.18,0-6.1-.17-8.46-.17-.67,0-2.5.09-3.66.09-.38,0-.58-.09-.58-.29,0-.15.12-.23.46-.23.44,0,.78-.06,1.05-.12.58-.12.73-.76.84-1.6.15-1.22.15-3.52.15-6.19v-5.11c0-4.42,0-5.23-.06-6.16-.06-.99-.29-1.45-1.25-1.66-.23-.06-.58-.09-.96-.09-.32,0-.49-.06-.49-.26s.2-.26.64-.26c1.37,0,3.2.09,3.98.09.7,0,2.82-.09,3.95-.09.41,0,.61.06.61.26s-.17.26-.52.26c-.32,0-.78.03-1.13.09-.78.14-1.02.64-1.08,1.66-.06.93-.06,1.74-.06,6.16v5.11Z"/><path class="cls-4" d="m313.64,168.4c0-4.42,0-5.23-.06-6.16-.06-.99-.29-1.45-1.25-1.66-.23-.06-.73-.09-1.13-.09-.32,0-.49-.06-.49-.26s.2-.26.64-.26c1.54,0,3.37.09,4.24.09.7,0,2.53-.09,3.57-.09.44,0,.64.06.64.26s-.17.26-.46.26c-.32,0-.49.03-.84.09-.78.14-1.02.64-1.08,1.66-.06.93-.06,1.74-.06,6.16v4.07c0,4.21.84,5.99,2.27,7.15,1.31,1.08,2.64,1.19,3.63,1.19,1.28,0,2.85-.41,4.01-1.57,1.6-1.6,1.69-4.21,1.69-7.21v-3.63c0-4.42,0-5.23-.06-6.16-.06-.99-.29-1.45-1.25-1.66-.23-.06-.73-.09-1.05-.09s-.49-.06-.49-.26.2-.26.61-.26c1.48,0,3.31.09,3.34.09.35,0,2.18-.09,3.31-.09.41,0,.61.06.61.26s-.17.26-.52.26c-.32,0-.49.03-.84.09-.78.14-1.02.64-1.08,1.66-.06.93-.06,1.74-.06,6.16v3.11c0,3.23-.32,6.65-2.76,8.75-2.06,1.77-4.16,2.09-6.04,2.09-1.54,0-4.33-.09-6.45-2.01-1.48-1.34-2.59-3.49-2.59-7.7v-4.24Z"/><path class="cls-4" d="m357.76,169.79c.93,1.42,5.64,9.3,6.36,10.23.49.64.93.99,1.69,1.22.49.15.84.17,1.1.17.2,0,.38.06.38.23,0,.2-.23.29-.55.29h-.87c-.7,0-2.99,0-5.23-.06-.76-.03-.99-.09-.99-.29,0-.17.14-.26.41-.32.15-.03.26-.29.06-.67-1.6-2.85-3.25-5.73-4.59-7.9l-4.3,6.94c-.29.46-.44.9-.41,1.22.03.26.29.44.55.49.17.03.44.06.67.06.17,0,.35.09.35.26,0,.2-.2.26-.58.26h-.52c-.17,0-2.01-.09-2.73-.09-.55,0-1.98.09-2.44.09h-.49c-.29,0-.44-.09-.44-.26s.17-.26.41-.26c.2,0,.64-.03,1.08-.15.84-.23,1.4-.78,2.38-2.18l5.55-7.93-5-8.28c-.7-1.16-1.4-1.86-2.41-2.18-.46-.15-.93-.2-1.22-.2-.17,0-.29-.09-.29-.29,0-.17.2-.23.58-.23.7,0,3.05.09,4.42.09.41,0,2.03-.09,3.11-.09.41,0,.58.06.58.26s-.17.26-.44.26c-.17,0-.55.03-.78.12-.26.09-.35.29-.35.46s.12.52.29.84c1.25,2.32,2.56,4.45,3.69,6.42.84-1.28,3.52-5.32,3.95-6.13.23-.41.32-.87.32-1.1,0-.2-.2-.44-.49-.52-.29-.09-.7-.09-.93-.09-.17,0-.35-.06-.35-.26,0-.17.2-.26.61-.26,1.13,0,2.35.09,2.91.09.58,0,1.77-.09,2.85-.09.32,0,.52.09.52.26s-.17.26-.46.26-.64.06-1.05.17c-.67.17-1.25.99-2.12,2.27l-4.77,6.86Z"/><path class="cls-4" d="m380.89,168.4c0-4.42,0-5.23-.06-6.16-.06-.99-.29-1.45-1.25-1.66-.23-.06-.73-.09-1.13-.09-.32,0-.49-.06-.49-.26s.2-.26.64-.26c1.54,0,3.37.09,4.24.09.7,0,2.53-.09,3.57-.09.44,0,.64.06.64.26s-.17.26-.46.26c-.32,0-.49.03-.84.09-.78.14-1.02.64-1.08,1.66-.06.93-.06,1.74-.06,6.16v4.07c0,4.21.84,5.99,2.27,7.15,1.31,1.08,2.64,1.19,3.63,1.19,1.28,0,2.85-.41,4.01-1.57,1.6-1.6,1.69-4.21,1.69-7.21v-3.63c0-4.42,0-5.23-.06-6.16-.06-.99-.29-1.45-1.25-1.66-.23-.06-.73-.09-1.05-.09s-.49-.06-.49-.26.2-.26.61-.26c1.48,0,3.31.09,3.34.09.35,0,2.18-.09,3.31-.09.41,0,.61.06.61.26s-.17.26-.52.26c-.32,0-.49.03-.84.09-.78.14-1.02.64-1.08,1.66-.06.93-.06,1.74-.06,6.16v3.11c0,3.23-.32,6.65-2.76,8.75-2.06,1.77-4.16,2.09-6.04,2.09-1.54,0-4.33-.09-6.45-2.01-1.48-1.34-2.59-3.49-2.59-7.7v-4.24Z"/><path class="cls-4" d="m417.8,168.4c0-4.42,0-5.23-.06-6.16-.06-.99-.29-1.45-1.25-1.66-.23-.06-.73-.09-1.13-.09-.32,0-.49-.06-.49-.26s.2-.26.64-.26c1.54,0,3.37.09,3.98.09.99,0,3.2-.09,4.1-.09,1.83,0,3.78.17,5.35,1.25.81.55,1.98,2.03,1.98,3.98,0,2.15-.9,4.13-3.84,6.51,2.59,3.25,4.59,5.84,6.31,7.64,1.63,1.69,2.82,1.89,3.25,1.98.32.06.58.09.81.09s.35.09.35.23c0,.23-.2.29-.55.29h-2.76c-1.63,0-2.35-.15-3.11-.55-1.25-.67-2.35-2.03-3.98-4.27-1.16-1.6-2.5-3.58-2.88-4.01-.15-.17-.32-.2-.52-.2l-2.53-.06c-.14,0-.23.06-.23.23v.41c0,2.7,0,5,.14,6.22.09.84.26,1.48,1.13,1.6.44.06,1.08.12,1.42.12.23,0,.35.09.35.23,0,.2-.2.29-.58.29-1.69,0-3.84-.09-4.27-.09-.55,0-2.38.09-3.55.09-.38,0-.58-.09-.58-.29,0-.15.12-.23.46-.23.44,0,.78-.06,1.05-.12.58-.12.73-.76.84-1.6.15-1.22.15-3.52.15-6.19v-5.11Zm3.43,2.3c0,.32.06.44.26.52.61.2,1.48.29,2.21.29,1.16,0,1.54-.12,2.06-.49.87-.64,1.71-1.98,1.71-4.36,0-4.13-2.73-5.32-4.45-5.32-.73,0-1.25.03-1.54.12-.2.06-.26.17-.26.41v8.83Z"/><path class="cls-4" d="m453.32,174.41c0-1.57-.29-2.21-.67-3.05-.2-.47-4.1-6.86-5.11-8.37-.73-1.08-1.45-1.8-2-2.12-.38-.2-.87-.38-1.22-.38-.23,0-.44-.06-.44-.26,0-.17.2-.26.55-.26.52,0,2.7.09,3.66.09.61,0,1.8-.09,3.11-.09.29,0,.44.09.44.26s-.2.2-.64.32c-.26.06-.41.29-.41.52s.14.58.35.99c.41.87,4.47,7.87,4.94,8.69.29-.7,3.95-7.09,4.36-7.99.29-.64.41-1.13.41-1.51,0-.29-.12-.61-.61-.73-.26-.06-.52-.12-.52-.29,0-.2.15-.26.49-.26.96,0,1.89.09,2.73.09.64,0,2.56-.09,3.11-.09.32,0,.52.06.52.23,0,.2-.23.29-.55.29-.29,0-.84.12-1.28.35-.61.29-.93.64-1.57,1.42-.96,1.16-5.03,7.99-5.55,9.24-.44,1.05-.44,1.95-.44,2.91v2.38c0,.46,0,1.69.09,2.91.06.84.32,1.48,1.19,1.6.41.06,1.05.12,1.45.12.32,0,.46.09.46.23,0,.2-.23.29-.61.29-1.83,0-3.66-.09-4.45-.09-.73,0-2.56.09-3.63.09-.41,0-.64-.06-.64-.29,0-.15.14-.23.46-.23.41,0,.75-.06,1.02-.12.58-.12.84-.76.9-1.6.09-1.22.09-2.44.09-2.91v-2.38Z"/><path class="cls-4" d="m500.05,168.4c0-4.42,0-5.23-.06-6.16-.06-.99-.29-1.45-1.25-1.66-.23-.06-.73-.09-1.13-.09-.32,0-.49-.06-.49-.26s.2-.26.64-.26c1.54,0,3.37.09,4.18.09,1.19,0,2.88-.09,4.21-.09,3.63,0,4.94,1.22,5.4,1.66.64.61,1.45,1.92,1.45,3.46,0,4.13-3.02,7.03-7.15,7.03-.14,0-.46,0-.61-.03-.15-.03-.35-.06-.35-.26,0-.23.2-.32.81-.32,1.63,0,3.89-1.83,3.89-4.79,0-.96-.09-2.91-1.72-4.36-1.05-.96-2.24-1.13-2.9-1.13-.44,0-.87.03-1.13.12-.15.06-.23.23-.23.55v11.62c0,2.67,0,4.97.15,6.22.09.81.26,1.45,1.13,1.57.41.06,1.05.12,1.48.12.32,0,.47.09.47.23,0,.2-.23.29-.55.29-1.92,0-3.75-.09-4.5-.09-.67,0-2.5.09-3.66.09-.38,0-.58-.09-.58-.29,0-.15.12-.23.46-.23.44,0,.78-.06,1.05-.12.58-.12.73-.76.84-1.6.15-1.22.15-3.52.15-6.19v-5.11Z"/><path class="cls-4" d="m529.99,168.4c0-4.42,0-5.23-.06-6.16-.06-.99-.29-1.45-1.25-1.66-.23-.06-.73-.09-1.13-.09-.32,0-.49-.06-.49-.26s.2-.26.64-.26c1.54,0,3.37.09,3.98.09.99,0,3.2-.09,4.1-.09,1.83,0,3.78.17,5.35,1.25.81.55,1.98,2.03,1.98,3.98,0,2.15-.9,4.13-3.84,6.51,2.59,3.25,4.59,5.84,6.31,7.64,1.63,1.69,2.82,1.89,3.25,1.98.32.06.58.09.81.09s.35.09.35.23c0,.23-.2.29-.55.29h-2.76c-1.63,0-2.35-.15-3.11-.55-1.25-.67-2.35-2.03-3.98-4.27-1.16-1.6-2.5-3.58-2.88-4.01-.15-.17-.32-.2-.52-.2l-2.53-.06c-.14,0-.23.06-.23.23v.41c0,2.7,0,5,.14,6.22.09.84.26,1.48,1.13,1.6.44.06,1.08.12,1.42.12.23,0,.35.09.35.23,0,.2-.2.29-.58.29-1.69,0-3.84-.09-4.27-.09-.55,0-2.38.09-3.55.09-.38,0-.58-.09-.58-.29,0-.15.12-.23.46-.23.44,0,.78-.06,1.05-.12.58-.12.73-.76.84-1.6.15-1.22.15-3.52.15-6.19v-5.11Zm3.43,2.3c0,.32.06.44.26.52.61.2,1.48.29,2.21.29,1.16,0,1.54-.12,2.06-.49.87-.64,1.71-1.98,1.71-4.36,0-4.13-2.73-5.32-4.45-5.32-.73,0-1.25.03-1.54.12-.2.06-.26.17-.26.41v8.83Z"/><path class="cls-4" d="m559.52,170.96c0-4.97,3.28-11.39,12-11.39,7.23,0,11.74,4.21,11.74,10.87s-4.65,11.91-12.03,11.91c-8.34,0-11.71-6.25-11.71-11.39Zm19.67.55c0-6.51-3.75-10.55-8.51-10.55-3.34,0-7.15,1.86-7.15,9.1,0,6.04,3.34,10.84,8.92,10.84,2.03,0,6.74-.99,6.74-9.39Z"/><path class="cls-4" d="m600.24,168.4c0-4.42,0-5.23-.06-6.16-.06-.99-.29-1.45-1.25-1.66-.23-.06-.73-.09-1.13-.09-.32,0-.49-.06-.49-.26s.2-.26.64-.26c1.54,0,3.37.09,4.18.09,1.19,0,2.88-.09,4.21-.09,3.63,0,4.94,1.22,5.4,1.66.64.61,1.45,1.92,1.45,3.46,0,4.13-3.02,7.03-7.15,7.03-.14,0-.46,0-.61-.03-.15-.03-.35-.06-.35-.26,0-.23.2-.32.81-.32,1.63,0,3.89-1.83,3.89-4.79,0-.96-.09-2.91-1.72-4.36-1.05-.96-2.24-1.13-2.9-1.13-.44,0-.87.03-1.13.12-.15.06-.23.23-.23.55v11.62c0,2.67,0,4.97.15,6.22.09.81.26,1.45,1.13,1.57.41.06,1.05.12,1.48.12.32,0,.47.09.47.23,0,.2-.23.29-.55.29-1.92,0-3.75-.09-4.5-.09-.67,0-2.5.09-3.66.09-.38,0-.58-.09-.58-.29,0-.15.12-.23.46-.23.44,0,.78-.06,1.05-.12.58-.12.73-.76.84-1.6.15-1.22.15-3.52.15-6.19v-5.11Z"/><path class="cls-4" d="m630.17,168.4c0-4.42,0-5.23-.06-6.16-.06-.99-.29-1.45-1.25-1.66-.23-.06-.73-.09-1.13-.09-.32,0-.49-.06-.49-.26s.2-.26.64-.26c1.54,0,3.37.09,4.18.09.93,0,6.71,0,7.26-.03.55-.06,1.02-.12,1.25-.17.15-.03.32-.12.47-.12s.17.12.17.26c0,.2-.15.55-.23,1.89-.03.29-.09,1.57-.15,1.92-.03.15-.09.32-.29.32s-.26-.15-.26-.41c0-.2-.03-.7-.17-1.05-.2-.52-.49-.87-1.95-1.05-.49-.06-3.55-.12-4.13-.12-.14,0-.2.09-.2.29v7.35c0,.2.03.32.2.32.64,0,3.98,0,4.65-.06.7-.06,1.13-.15,1.4-.44.2-.23.32-.38.46-.38.12,0,.2.06.2.23s-.14.64-.23,2.12c-.06.58-.12,1.74-.12,1.95,0,.23,0,.55-.26.55-.2,0-.26-.12-.26-.26-.03-.29-.03-.67-.12-1.05-.15-.58-.55-1.02-1.63-1.13-.55-.06-3.43-.09-4.13-.09-.15,0-.17.12-.17.29v2.3c0,.99-.03,3.66,0,4.5.06,2,.52,2.44,3.49,2.44.75,0,1.98,0,2.73-.35.76-.35,1.1-.96,1.31-2.15.06-.32.12-.44.32-.44.23,0,.23.23.23.52,0,.67-.23,2.64-.38,3.23-.2.76-.46.76-1.57.76-4.39,0-6.33-.17-8.05-.17-.67,0-2.5.09-3.66.09-.38,0-.58-.09-.58-.29,0-.15.12-.23.46-.23.44,0,.78-.06,1.05-.12.58-.12.73-.76.84-1.6.15-1.22.15-3.52.15-6.19v-5.11Z"/><path class="cls-4" d="m659.44,168.4c0-4.42,0-5.23-.06-6.16-.06-.99-.29-1.45-1.25-1.66-.23-.06-.73-.09-1.13-.09-.32,0-.49-.06-.49-.26s.2-.26.64-.26c1.54,0,3.37.09,3.98.09.99,0,3.2-.09,4.1-.09,1.83,0,3.78.17,5.35,1.25.81.55,1.98,2.03,1.98,3.98,0,2.15-.9,4.13-3.84,6.51,2.59,3.25,4.59,5.84,6.31,7.64,1.63,1.69,2.82,1.89,3.25,1.98.32.06.58.09.81.09s.35.09.35.23c0,.23-.2.29-.55.29h-2.76c-1.63,0-2.35-.15-3.11-.55-1.25-.67-2.35-2.03-3.98-4.27-1.16-1.6-2.5-3.58-2.88-4.01-.15-.17-.32-.2-.52-.2l-2.53-.06c-.14,0-.23.06-.23.23v.41c0,2.7,0,5,.14,6.22.09.84.26,1.48,1.13,1.6.44.06,1.08.12,1.42.12.23,0,.35.09.35.23,0,.2-.2.29-.58.29-1.69,0-3.84-.09-4.27-.09-.55,0-2.38.09-3.55.09-.38,0-.58-.09-.58-.29,0-.15.12-.23.46-.23.44,0,.78-.06,1.05-.12.58-.12.73-.76.84-1.6.15-1.22.15-3.52.15-6.19v-5.11Zm3.43,2.3c0,.32.06.44.26.52.61.2,1.48.29,2.21.29,1.16,0,1.54-.12,2.06-.49.87-.64,1.71-1.98,1.71-4.36,0-4.13-2.73-5.32-4.45-5.32-.73,0-1.25.03-1.54.12-.2.06-.26.17-.26.41v8.83Z"/><path class="cls-4" d="m695.04,161.6l-4.33.12c-1.69.06-2.38.2-2.82.84-.29.44-.44.78-.49,1.02-.06.23-.14.35-.32.35-.2,0-.26-.15-.26-.47,0-.46.55-3.11.61-3.34.09-.38.17-.55.35-.55.23,0,.52.29,1.25.35.84.09,1.95.15,2.9.15h11.51c1.86,0,2.56-.29,2.79-.29.2,0,.23.17.23.61,0,.61-.09,2.61-.09,3.37-.03.29-.09.46-.26.46-.23,0-.29-.15-.32-.58l-.03-.32c-.06-.76-.84-1.57-3.43-1.63l-3.66-.09v11.91c0,2.67,0,4.97.15,6.22.09.81.26,1.45,1.13,1.57.41.06,1.05.12,1.48.12.32,0,.46.09.46.23,0,.2-.23.29-.55.29-1.92,0-3.75-.09-4.56-.09-.67,0-2.5.09-3.66.09-.38,0-.58-.09-.58-.29,0-.15.12-.23.46-.23.44,0,.78-.06,1.05-.12.58-.12.76-.76.84-1.6.14-1.22.14-3.52.14-6.19v-11.91Z"/><path class="cls-4" d="m722.71,168.4c0-4.42,0-5.23-.06-6.16-.06-.99-.35-1.48-.99-1.63-.32-.09-.7-.12-1.05-.12-.29,0-.46-.06-.46-.29,0-.17.23-.23.7-.23,1.1,0,2.93.09,3.78.09.73,0,2.44-.09,3.55-.09.38,0,.61.06.61.23,0,.23-.17.29-.46.29s-.52.03-.87.09c-.78.14-1.02.64-1.08,1.66-.06.93-.06,1.74-.06,6.16v5.11c0,2.82,0,5.11.12,6.36.09.78.29,1.31,1.16,1.42.41.06,1.05.12,1.48.12.32,0,.46.09.46.23,0,.2-.23.29-.55.29-1.92,0-3.75-.09-4.53-.09-.67,0-2.5.09-3.66.09-.38,0-.58-.09-.58-.29,0-.15.12-.23.46-.23.44,0,.78-.06,1.05-.12.58-.12.75-.61.84-1.45.15-1.22.15-3.52.15-6.33v-5.11Z"/><path class="cls-4" d="m746.74,168.4c0-4.42,0-5.23-.06-6.16-.06-.99-.29-1.45-1.25-1.66-.23-.06-.73-.09-1.13-.09-.32,0-.49-.06-.49-.26s.2-.26.64-.26c1.54,0,3.37.09,4.18.09.93,0,6.71,0,7.26-.03.55-.06,1.02-.12,1.25-.17.15-.03.32-.12.47-.12s.17.12.17.26c0,.2-.15.55-.23,1.89-.03.29-.09,1.57-.15,1.92-.03.15-.09.32-.29.32s-.26-.15-.26-.41c0-.2-.03-.7-.17-1.05-.2-.52-.49-.87-1.95-1.05-.49-.06-3.55-.12-4.13-.12-.14,0-.2.09-.2.29v7.35c0,.2.03.32.2.32.64,0,3.98,0,4.65-.06.7-.06,1.13-.15,1.4-.44.2-.23.32-.38.46-.38.12,0,.2.06.2.23s-.14.64-.23,2.12c-.06.58-.12,1.74-.12,1.95,0,.23,0,.55-.26.55-.2,0-.26-.12-.26-.26-.03-.29-.03-.67-.12-1.05-.15-.58-.55-1.02-1.63-1.13-.55-.06-3.43-.09-4.13-.09-.15,0-.17.12-.17.29v2.3c0,.99-.03,3.66,0,4.5.06,2,.52,2.44,3.49,2.44.75,0,1.98,0,2.73-.35.76-.35,1.1-.96,1.31-2.15.06-.32.12-.44.32-.44.23,0,.23.23.23.52,0,.67-.23,2.64-.38,3.23-.2.76-.46.76-1.57.76-4.39,0-6.33-.17-8.05-.17-.67,0-2.5.09-3.66.09-.38,0-.58-.09-.58-.29,0-.15.12-.23.46-.23.44,0,.78-.06,1.05-.12.58-.12.73-.76.84-1.6.15-1.22.15-3.52.15-6.19v-5.11Z"/><path class="cls-4" d="m774.41,181.59c-.46-.2-.55-.35-.55-.99,0-1.6.12-3.34.14-3.81.03-.44.12-.76.35-.76.26,0,.29.26.29.49,0,.38.12.99.26,1.48.64,2.15,2.35,2.93,4.16,2.93,2.62,0,3.89-1.77,3.89-3.31,0-1.42-.44-2.79-2.85-4.65l-1.34-1.05c-3.2-2.5-4.3-4.53-4.3-6.89,0-3.2,2.67-5.49,6.71-5.49,1.89,0,3.11.29,3.87.49.26.06.41.15.41.35,0,.38-.12,1.22-.12,3.49,0,.64-.09.87-.32.87-.2,0-.29-.17-.29-.52,0-.26-.14-1.16-.75-1.92-.44-.55-1.28-1.43-3.17-1.43-2.15,0-3.46,1.25-3.46,2.99,0,1.34.67,2.35,3.08,4.18l.81.61c3.49,2.7,4.77,4.65,4.77,7.41,0,1.69-.64,3.69-2.73,5.06-1.45.93-3.08,1.19-4.62,1.19-1.69,0-2.99-.2-4.24-.76Z"/><path class="cls-4" d="m1078.86,65.36c0-1.24.29-2.39.86-3.46.57-1.06,1.37-1.9,2.39-2.51,1.02-.61,2.12-.92,3.3-.92s2.28.31,3.29.92c1.01.61,1.81,1.45,2.38,2.51.58,1.06.86,2.22.86,3.46s-.28,2.34-.83,3.4c-.55,1.06-1.34,1.91-2.35,2.55-1.02.64-2.13.96-3.35.96s-2.32-.32-3.34-.95c-1.02-.64-1.81-1.48-2.36-2.54-.56-1.06-.84-2.2-.84-3.42Zm1.06,0c0,1.06.25,2.03.74,2.93.49.9,1.16,1.6,2.01,2.11.85.51,1.76.76,2.74.76s1.91-.26,2.76-.78c.85-.52,1.51-1.22,2-2.11.48-.89.72-1.86.72-2.92s-.24-2.02-.72-2.91-1.15-1.59-2-2.1c-.85-.51-1.77-.77-2.76-.77s-1.9.25-2.75.76c-.85.51-1.52,1.21-2,2.1-.49.9-.73,1.87-.73,2.91Zm4.13.69v3.12h-1.3v-7.83h2.54c.94,0,1.67.2,2.19.6.52.4.78.99.78,1.76s-.39,1.33-1.18,1.73c.75.31,1.13.93,1.13,1.88v.56c0,.53.05.91.16,1.14v.15h-1.34c-.09-.22-.13-.62-.13-1.18s0-.91-.03-1.01c-.1-.59-.5-.9-1.21-.92h-1.62Zm0-1.18h1.44c.44-.01.8-.12,1.07-.32.27-.2.41-.47.41-.8,0-.45-.12-.76-.36-.95s-.67-.28-1.28-.28h-1.27v2.35Z"/><path class="cls-4" d="m244.43,228.88c0-1.24.29-2.39.86-3.46.57-1.06,1.37-1.9,2.39-2.51s2.12-.92,3.3-.92,2.28.31,3.29.92c1.01.61,1.81,1.45,2.38,2.51.58,1.06.86,2.22.86,3.46s-.28,2.34-.83,3.4c-.55,1.06-1.34,1.91-2.35,2.55-1.02.64-2.13.96-3.35.96s-2.32-.32-3.34-.95c-1.02-.64-1.81-1.48-2.36-2.54-.56-1.06-.84-2.2-.84-3.42Zm1.06,0c0,1.06.25,2.03.74,2.93.49.9,1.16,1.6,2.01,2.11s1.76.76,2.74.76,1.91-.26,2.76-.78c.85-.52,1.51-1.22,2-2.11.48-.89.72-1.86.72-2.92s-.24-2.02-.72-2.91-1.15-1.59-2-2.1c-.85-.51-1.77-.77-2.76-.77s-1.9.25-2.75.76c-.85.51-1.52,1.21-2,2.1s-.73,1.87-.73,2.91Zm4.13.69v3.12h-1.3v-7.83h2.54c.94,0,1.67.2,2.19.6.52.4.78.99.78,1.76s-.39,1.33-1.18,1.73c.75.31,1.13.93,1.13,1.88v.56c0,.53.05.91.16,1.14v.15h-1.34c-.09-.22-.13-.62-.13-1.18s0-.91-.03-1.01c-.1-.59-.5-.9-1.21-.92h-1.62Zm0-1.18h1.44c.44-.01.8-.12,1.07-.32.27-.2.41-.47.41-.8,0-.45-.12-.76-.36-.95s-.67-.28-1.28-.28h-1.27v2.35Z"/></svg>