<?xml version="1.0" encoding="UTF-8" standalone="no"?>
<!-- Created with Inkscape (http://www.inkscape.org/) -->

<svg
   version="1.1"
   id="svg1"
   width="194.66667"
   height="69.333336"
   viewBox="0 0 194.66667 69.333336"
   sodipodi:docname="Royal_LePage.eps"
   xmlns:inkscape="http://www.inkscape.org/namespaces/inkscape"
   xmlns:sodipodi="http://sodipodi.sourceforge.net/DTD/sodipodi-0.dtd"
   xmlns="http://www.w3.org/2000/svg"
   xmlns:svg="http://www.w3.org/2000/svg">
  <defs
     id="defs1" />
  <sodipodi:namedview
     id="namedview1"
     pagecolor="#ffffff"
     bordercolor="#000000"
     borderopacity="0.25"
     inkscape:showpageshadow="2"
     inkscape:pageopacity="0.0"
     inkscape:pagecheckerboard="0"
     inkscape:deskcolor="#d1d1d1">
    <inkscape:page
       x="0"
       y="0"
       inkscape:label="1"
       id="page1"
       width="194.66667"
       height="69.333336"
       margin="0"
       bleed="0" />
  </sodipodi:namedview>
  <g
     id="g1"
     inkscape:groupmode="layer"
     inkscape:label="1">
    <path
       id="path1"
       d="m 741.188,515.402 h 17.406 V 397.508 h -17.406 v 117.894 0"
       style="fill:#0b0c0b;fill-opacity:1;fill-rule:evenodd;stroke:none"
       transform="matrix(0.13333333,0,0,-0.13333333,0,69.333333)" />
    <path
       id="path2"
       d="m 772.113,515.402 h 19.321 V 397.508 h -19.321 v 117.894 0"
       style="fill:#0b0c0b;fill-opacity:1;fill-rule:evenodd;stroke:none"
       transform="matrix(0.13333333,0,0,-0.13333333,0,69.333333)" />
    <path
       id="path3"
       d="m 803.043,515.402 h 19.332 V 397.508 h -19.332 v 117.894 0"
       style="fill:#0b0c0b;fill-opacity:1;fill-rule:evenodd;stroke:none"
       transform="matrix(0.13333333,0,0,-0.13333333,0,69.333333)" />
    <path
       id="path4"
       d="m 835.891,515.402 h 17.398 V 397.508 h -17.398 v 117.894 0"
       style="fill:#0b0c0b;fill-opacity:1;fill-rule:evenodd;stroke:none"
       transform="matrix(0.13333333,0,0,-0.13333333,0,69.333333)" />
    <path
       id="path5"
       d="m 866.816,515.402 h 19.332 V 397.508 h -19.332 v 117.894 0"
       style="fill:#0b0c0b;fill-opacity:1;fill-rule:evenodd;stroke:none"
       transform="matrix(0.13333333,0,0,-0.13333333,0,69.333333)" />
    <path
       id="path6"
       d="m 897.754,515.402 h 19.309 V 397.508 h -19.309 v 117.894 0"
       style="fill:#0b0c0b;fill-opacity:1;fill-rule:evenodd;stroke:none"
       transform="matrix(0.13333333,0,0,-0.13333333,0,69.333333)" />
    <path
       id="path7"
       d="M 930.598,515.402 H 947.98 V 397.508 h -17.382 v 117.894 0"
       style="fill:#0b0c0b;fill-opacity:1;fill-rule:evenodd;stroke:none"
       transform="matrix(0.13333333,0,0,-0.13333333,0,69.333333)" />
    <path
       id="path8"
       d="m 961.516,515.402 h 19.328 V 397.508 h -19.328 v 117.894 0"
       style="fill:#0b0c0b;fill-opacity:1;fill-rule:evenodd;stroke:none"
       transform="matrix(0.13333333,0,0,-0.13333333,0,69.333333)" />
    <path
       id="path9"
       d="m 992.441,515.402 h 19.339 V 397.508 h -19.339 v 117.894 0"
       style="fill:#0b0c0b;fill-opacity:1;fill-rule:evenodd;stroke:none"
       transform="matrix(0.13333333,0,0,-0.13333333,0,69.333333)" />
    <path
       id="path10"
       d="m 1025.3,515.402 h 17.39 V 397.508 h -17.39 v 117.894 0"
       style="fill:#0b0c0b;fill-opacity:1;fill-rule:evenodd;stroke:none"
       transform="matrix(0.13333333,0,0,-0.13333333,0,69.333333)" />
    <path
       id="path11"
       d="m 1056.23,515.402 h 19.34 V 397.508 h -19.34 v 117.894 0"
       style="fill:#0b0c0b;fill-opacity:1;fill-rule:evenodd;stroke:none"
       transform="matrix(0.13333333,0,0,-0.13333333,0,69.333333)" />
    <path
       id="path12"
       d="m 1087.14,515.402 h 19.34 V 397.508 h -19.34 v 117.894 0"
       style="fill:#0b0c0b;fill-opacity:1;fill-rule:evenodd;stroke:none"
       transform="matrix(0.13333333,0,0,-0.13333333,0,69.333333)" />
    <path
       id="path13"
       d="m 1120,515.402 h 17.4 V 397.508 H 1120 v 117.894 0"
       style="fill:#0b0c0b;fill-opacity:1;fill-rule:evenodd;stroke:none"
       transform="matrix(0.13333333,0,0,-0.13333333,0,69.333333)" />
    <path
       id="path14"
       d="m 1150.94,515.402 h 19.31 V 397.508 h -19.31 v 117.894 0"
       style="fill:#0b0c0b;fill-opacity:1;fill-rule:evenodd;stroke:none"
       transform="matrix(0.13333333,0,0,-0.13333333,0,69.333333)" />
    <path
       id="path15"
       d="m 1181.84,515.402 h 19.32 V 397.508 h -19.32 v 117.894 0"
       style="fill:#0b0c0b;fill-opacity:1;fill-rule:evenodd;stroke:none"
       transform="matrix(0.13333333,0,0,-0.13333333,0,69.333333)" />
    <path
       id="path16"
       d="m 1214.71,515.402 h 17.4 V 397.508 h -17.4 v 117.894 0"
       style="fill:#0b0c0b;fill-opacity:1;fill-rule:evenodd;stroke:none"
       transform="matrix(0.13333333,0,0,-0.13333333,0,69.333333)" />
    <path
       id="path17"
       d="m 1245.62,515.402 h 19.34 V 397.508 h -19.34 v 117.894 0"
       style="fill:#0b0c0b;fill-opacity:1;fill-rule:evenodd;stroke:none"
       transform="matrix(0.13333333,0,0,-0.13333333,0,69.333333)" />
    <path
       id="path18"
       d="m 1276.57,515.402 h 19.31 V 397.508 h -19.31 v 117.894 0"
       style="fill:#0b0c0b;fill-opacity:1;fill-rule:evenodd;stroke:none"
       transform="matrix(0.13333333,0,0,-0.13333333,0,69.333333)" />
    <path
       id="path19"
       d="m 1309.42,515.402 h 17.4 V 397.508 h -17.4 v 117.894 0"
       style="fill:#0b0c0b;fill-opacity:1;fill-rule:evenodd;stroke:none"
       transform="matrix(0.13333333,0,0,-0.13333333,0,69.333333)" />
    <path
       id="path20"
       d="m 1340.32,515.402 h 19.35 V 397.508 h -19.35 v 117.894 0"
       style="fill:#0b0c0b;fill-opacity:1;fill-rule:evenodd;stroke:none"
       transform="matrix(0.13333333,0,0,-0.13333333,0,69.333333)" />
    <path
       id="path21"
       d="m 1371.27,515.402 h 19.3 V 397.508 h -19.3 v 117.894 0"
       style="fill:#0b0c0b;fill-opacity:1;fill-rule:evenodd;stroke:none"
       transform="matrix(0.13333333,0,0,-0.13333333,0,69.333333)" />
    <path
       id="path22"
       d="m 1404.12,515.402 h 17.37 V 397.508 h -17.37 v 117.894 0"
       style="fill:#0b0c0b;fill-opacity:1;fill-rule:evenodd;stroke:none"
       transform="matrix(0.13333333,0,0,-0.13333333,0,69.333333)" />
    <path
       id="path23"
       d="m 1435.03,515.402 h 19.32 V 397.508 h -19.32 v 117.894 0"
       style="fill:#0b0c0b;fill-opacity:1;fill-rule:evenodd;stroke:none"
       transform="matrix(0.13333333,0,0,-0.13333333,0,69.333333)" />
    <path
       id="path24"
       d="M 0.960938,515.402 H 727.652 V 397.508 H 0.960938 v 117.894 0"
       style="fill:#ed1f29;fill-opacity:1;fill-rule:evenodd;stroke:none"
       transform="matrix(0.13333333,0,0,-0.13333333,0,69.333333)" />
    <path
       id="path25"
       d="M 0.960938,124.996 H 727.652 V 9.03125 H 0.960938 v 115.96475 0"
       style="fill:#ed1f29;fill-opacity:1;fill-rule:evenodd;stroke:none"
       transform="matrix(0.13333333,0,0,-0.13333333,0,69.333333)" />
    <path
       id="path26"
       d="m 741.188,124.996 h 17.406 V 9.03125 h -17.406 v 115.96475 0"
       style="fill:#0b0c0b;fill-opacity:1;fill-rule:evenodd;stroke:none"
       transform="matrix(0.13333333,0,0,-0.13333333,0,69.333333)" />
    <path
       id="path27"
       d="m 772.113,124.996 h 19.321 V 9.03125 h -19.321 v 115.96475 0"
       style="fill:#0b0c0b;fill-opacity:1;fill-rule:evenodd;stroke:none"
       transform="matrix(0.13333333,0,0,-0.13333333,0,69.333333)" />
    <path
       id="path28"
       d="m 803.043,124.996 h 19.332 V 9.03125 h -19.332 v 115.96475 0"
       style="fill:#0b0c0b;fill-opacity:1;fill-rule:evenodd;stroke:none"
       transform="matrix(0.13333333,0,0,-0.13333333,0,69.333333)" />
    <path
       id="path29"
       d="m 835.891,124.996 h 17.398 V 9.03125 h -17.398 v 115.96475 0"
       style="fill:#0b0c0b;fill-opacity:1;fill-rule:evenodd;stroke:none"
       transform="matrix(0.13333333,0,0,-0.13333333,0,69.333333)" />
    <path
       id="path30"
       d="m 866.816,124.996 h 19.332 V 9.03125 h -19.332 v 115.96475 0"
       style="fill:#0b0c0b;fill-opacity:1;fill-rule:evenodd;stroke:none"
       transform="matrix(0.13333333,0,0,-0.13333333,0,69.333333)" />
    <path
       id="path31"
       d="m 897.754,124.996 h 19.309 V 9.03125 h -19.309 v 115.96475 0"
       style="fill:#0b0c0b;fill-opacity:1;fill-rule:evenodd;stroke:none"
       transform="matrix(0.13333333,0,0,-0.13333333,0,69.333333)" />
    <path
       id="path32"
       d="M 930.598,124.996 H 947.98 V 9.03125 h -17.382 v 115.96475 0"
       style="fill:#0b0c0b;fill-opacity:1;fill-rule:evenodd;stroke:none"
       transform="matrix(0.13333333,0,0,-0.13333333,0,69.333333)" />
    <path
       id="path33"
       d="m 961.516,124.996 h 19.328 V 9.03125 h -19.328 v 115.96475 0"
       style="fill:#0b0c0b;fill-opacity:1;fill-rule:evenodd;stroke:none"
       transform="matrix(0.13333333,0,0,-0.13333333,0,69.333333)" />
    <path
       id="path34"
       d="m 992.441,124.996 h 19.339 V 9.03125 h -19.339 v 115.96475 0"
       style="fill:#0b0c0b;fill-opacity:1;fill-rule:evenodd;stroke:none"
       transform="matrix(0.13333333,0,0,-0.13333333,0,69.333333)" />
    <path
       id="path35"
       d="m 1025.3,124.996 h 17.39 V 9.03125 h -17.39 v 115.96475 0"
       style="fill:#0b0c0b;fill-opacity:1;fill-rule:evenodd;stroke:none"
       transform="matrix(0.13333333,0,0,-0.13333333,0,69.333333)" />
    <path
       id="path36"
       d="m 1056.23,124.996 h 19.34 V 9.03125 h -19.34 v 115.96475 0"
       style="fill:#0b0c0b;fill-opacity:1;fill-rule:evenodd;stroke:none"
       transform="matrix(0.13333333,0,0,-0.13333333,0,69.333333)" />
    <path
       id="path37"
       d="m 1087.14,124.996 h 19.34 V 9.03125 h -19.34 v 115.96475 0"
       style="fill:#0b0c0b;fill-opacity:1;fill-rule:evenodd;stroke:none"
       transform="matrix(0.13333333,0,0,-0.13333333,0,69.333333)" />
    <path
       id="path38"
       d="m 1120,124.996 h 17.4 V 9.03125 H 1120 v 115.96475 0"
       style="fill:#0b0c0b;fill-opacity:1;fill-rule:evenodd;stroke:none"
       transform="matrix(0.13333333,0,0,-0.13333333,0,69.333333)" />
    <path
       id="path39"
       d="m 1150.94,124.996 h 19.31 V 9.03125 h -19.31 v 115.96475 0"
       style="fill:#0b0c0b;fill-opacity:1;fill-rule:evenodd;stroke:none"
       transform="matrix(0.13333333,0,0,-0.13333333,0,69.333333)" />
    <path
       id="path40"
       d="m 1181.84,124.996 h 19.32 V 9.03125 h -19.32 v 115.96475 0"
       style="fill:#0b0c0b;fill-opacity:1;fill-rule:evenodd;stroke:none"
       transform="matrix(0.13333333,0,0,-0.13333333,0,69.333333)" />
    <path
       id="path41"
       d="m 1214.71,124.996 h 17.4 V 9.03125 h -17.4 v 115.96475 0"
       style="fill:#0b0c0b;fill-opacity:1;fill-rule:evenodd;stroke:none"
       transform="matrix(0.13333333,0,0,-0.13333333,0,69.333333)" />
    <path
       id="path42"
       d="m 1245.62,124.996 h 19.34 V 9.03125 h -19.34 v 115.96475 0"
       style="fill:#0b0c0b;fill-opacity:1;fill-rule:evenodd;stroke:none"
       transform="matrix(0.13333333,0,0,-0.13333333,0,69.333333)" />
    <path
       id="path43"
       d="m 1276.57,124.996 h 19.31 V 9.03125 h -19.31 v 115.96475 0"
       style="fill:#0b0c0b;fill-opacity:1;fill-rule:evenodd;stroke:none"
       transform="matrix(0.13333333,0,0,-0.13333333,0,69.333333)" />
    <path
       id="path44"
       d="m 1309.42,124.996 h 17.4 V 9.03125 h -17.4 v 115.96475 0"
       style="fill:#0b0c0b;fill-opacity:1;fill-rule:evenodd;stroke:none"
       transform="matrix(0.13333333,0,0,-0.13333333,0,69.333333)" />
    <path
       id="path45"
       d="m 1340.32,124.996 h 19.35 V 9.03125 h -19.35 v 115.96475 0"
       style="fill:#0b0c0b;fill-opacity:1;fill-rule:evenodd;stroke:none"
       transform="matrix(0.13333333,0,0,-0.13333333,0,69.333333)" />
    <path
       id="path46"
       d="m 1371.27,124.996 h 19.3 V 9.03125 h -19.3 v 115.96475 0"
       style="fill:#0b0c0b;fill-opacity:1;fill-rule:evenodd;stroke:none"
       transform="matrix(0.13333333,0,0,-0.13333333,0,69.333333)" />
    <path
       id="path47"
       d="m 1404.12,124.996 h 17.37 V 9.03125 h -17.37 v 115.96475 0"
       style="fill:#0b0c0b;fill-opacity:1;fill-rule:evenodd;stroke:none"
       transform="matrix(0.13333333,0,0,-0.13333333,0,69.333333)" />
    <path
       id="path48"
       d="m 1435.03,124.996 h 19.32 V 9.03125 h -19.32 v 115.96475 0"
       style="fill:#0b0c0b;fill-opacity:1;fill-rule:evenodd;stroke:none"
       transform="matrix(0.13333333,0,0,-0.13333333,0,69.333333)" />
    <path
       id="path49"
       d="M 834.641,218.363 V 193.004 H 729.129 V 331.43 h 34.484 V 218.363 Z m 90.609,-5.359 v -20 h -80.449 v 109.141 h 79.363 v -19.997 h -52.195 v -22.902 h 49.789 v -20.008 h -49.789 v -26.234 z m 20.566,118.426 h 61.724 c 14,0 25.13,-4.059 33.41,-12.211 8.26,-8.114 12.38,-17.715 12.38,-28.813 0,-11.496 -4.08,-21.34 -12.24,-29.527 -8.16,-8.18 -19.28,-12.274 -33.34,-12.274 h -27.437 v -55.601 h -34.497 z m 34.497,-25.367 v -32.094 h 16.031 c 14.346,0 21.506,5.347 21.506,16.031 0,6.016 -1.92,10.18 -5.74,12.547 -3.82,2.336 -10.38,3.516 -19.618,3.516 z m 149.667,25.367 61.43,-138.426 h -37.07 l -11.41,27.363 h -61.91 l -10.28,-27.363 h -36.57 l 55.78,138.426 z m 2.79,-86.922 -22.33,53.812 -20.28,-53.812 z m 192.45,77.32 V 291.59 c -17.62,8.519 -34.87,12.789 -51.71,12.789 -16.24,0 -28.79,-4.094 -37.54,-12.285 -8.8,-8.176 -13.19,-18.641 -13.19,-31.313 0,-12.14 4.39,-21.988 13.19,-29.523 8.75,-7.543 20.32,-11.297 34.67,-11.297 7.6,0 15.22,1.668 22.89,4.934 v 16.164 h -20.02 v 25.355 h 54.59 v -56.562 c -5.49,-5.485 -13.8,-9.95 -25,-13.434 -11.22,-3.453 -22.28,-5.207 -33.24,-5.207 -24.11,0 -43.93,6.664 -59.43,19.988 -15.49,13.293 -23.23,30.239 -23.23,50.77 0,20.996 7.74,38.14 23.23,51.367 15.5,13.258 35.58,19.891 60.21,19.891 20.36,0 38.55,-3.829 54.58,-11.399 z M 1454.37,218.363 V 193.004 H 1352.33 V 331.43 h 100.64 v -25.367 h -66.18 v -29.047 h 63.15 v -25.371 h -63.15 V 218.363 Z M 0.960938,331.43 H 62.7852 c 13.4257,0 24.3164,-3.887 32.7031,-11.637 8.3947,-7.777 12.5817,-17.184 12.5817,-28.203 0,-15.254 -7.914,-26.551 -23.777,-33.887 6.9961,-3.117 13.6328,-11.605 19.855,-25.469 6.254,-13.871 12.274,-26.957 18.094,-39.23 H 84.293 c -2.2305,4.562 -6.1524,13.262 -11.7383,26.074 -5.582,12.789 -10.3789,21.039 -14.3711,24.66 -3.9922,3.614 -8.2813,5.442 -12.8203,5.442 H 35.457 V 193.004 H 0.960938 Z M 35.457,306.063 v -31.52 h 18.2305 c 5.8125,0 10.4102,1.391 13.8047,4.129 3.4062,2.734 5.0937,6.625 5.0937,11.734 0,10.418 -6.5546,15.657 -19.7148,15.657 z m 175.731,27.164 c 23.57,0 42.683,-7.141 57.257,-21.379 14.61,-14.235 21.914,-30.774 21.914,-49.68 0,-19.141 -7.406,-35.785 -22.195,-49.855 -14.801,-14.067 -33.816,-21.102 -56.976,-21.102 -23.442,0 -42.547,7.004 -57.258,21 -14.746,14 -22.117,30.676 -22.117,49.957 0,18.93 7.335,35.543 21.945,49.738 14.644,14.211 33.793,21.321 57.43,21.321 z m 0,-113.266 c 13.089,0 23.605,3.898 31.621,11.629 7.98,7.781 11.964,17.961 11.964,30.578 0,12.684 -3.984,22.898 -11.964,30.605 -8.016,7.743 -18.532,11.606 -31.621,11.606 -13.161,0 -23.743,-3.863 -31.758,-11.606 -8.016,-7.707 -12.039,-17.921 -12.039,-30.605 0,-12.617 4.023,-22.797 12.039,-30.578 8.015,-7.731 18.597,-11.629 31.758,-11.629 z M 340.75,193.004 v 64.699 l -54.582,73.727 h 41.801 L 358,287.934 388.238,331.43 h 41.598 l -54.59,-73.727 V 193.004 Z M 506.508,331.43 567.91,193.004 h -37.051 l -11.402,27.363 h -61.934 l -10.277,-27.363 h -36.555 l 55.758,138.426 z m 2.769,-86.922 -22.32,53.812 -20.293,-53.812 z M 692.031,218.363 V 193.004 H 586.52 V 331.43 h 34.503 V 218.363 h 71.008"
       style="fill:#231f20;fill-opacity:1;fill-rule:evenodd;stroke:none"
       transform="matrix(0.13333333,0,0,-0.13333333,0,69.333333)" />
  </g>
</svg>
